<svg width="55" height="56" viewBox="0 0 55 56" fill="none" xmlns="http://www.w3.org/2000/svg">
<path fill-rule="evenodd" clip-rule="evenodd" d="M19.4635 8.71542C13.0461 9.94914 9.7476 14.8384 9.7476 23.2231C9.72516 31.8135 18.2294 37.0911 26.9805 33.9154L28.5962 33.3214C29.9201 34.7379 30.1445 34.7379 28.7308 35.606C27.6089 36.2914 27.721 36.9997 28.439 37.2738C29.4039 37.6394 35.2605 43.3739 36.0459 44.7676C38.9405 49.9081 46.1657 48.1032 45.6721 44.0822C45.4477 42.2544 44.0788 40.1297 42.4632 38.6218C40.6682 36.9312 39.6584 35.5603 38.3346 33.0015C37.0555 30.5112 35.9113 29.9629 34.2507 30.991C33.5327 31.4251 33.4653 31.4479 33.0839 31.0824C32.2985 30.3741 32.3434 29.8944 33.3083 28.4093C36.9883 22.6519 37.1902 17.6257 33.9366 13.6275C29.4039 8.05287 25.522 10.0634 28.1698 11.7997C34.6097 16.0035 34.2732 24.5482 27.407 30.991C23.5923 34.5779 15.9183 32.6588 13.9437 27.6325C10.8247 19.6362 15.963 9.08097 24.2879 10.7716C27.1601 11.5256 28.3045 7.02476 19.4635 8.71542ZM18.566 14.4043C17.6012 15.2268 18.2294 15.935 20.0245 14.6784C21.2811 13.8103 21.887 13.6503 23.0314 13.9245C24.5348 14.2672 25.4547 13.8788 24.9835 13.102C24.8264 12.8279 21.5279 11.8683 18.566 14.4043ZM27.5639 14.1073C26.3523 14.0387 26.0381 14.7241 26.8684 15.6152C27.9005 16.7346 29.965 16.9174 29.8527 15.8893C29.7854 15.1811 28.4839 14.153 27.5639 14.1073ZM35.3727 33.2528C35.5522 34.0068 37.3249 36.657 38.2673 37.6394C39.4117 38.8046 39.9053 39.5814 41.3862 41.2263C44.393 44.5848 40.8028 47.9204 37.9755 43.7166C34.4078 38.4162 31.0868 36.7484 31.1317 36.1315C31.199 35.3547 35.2156 32.6131 35.3727 33.2528Z" fill="#006B99"/>
</svg>
