<svg width="55" height="55" viewBox="0 0 55 55" fill="none" xmlns="http://www.w3.org/2000/svg">
<path fill-rule="evenodd" clip-rule="evenodd" d="M27.7534 18.0708L28.2109 19.5706C27.8296 19.8756 24.5506 22.7989 24.3472 22.4684C24.3218 22.443 18.6784 19.4943 14.8654 20.5365C10.6966 21.6804 7.67163 26.0527 8.30713 31.5942C9.04431 37.8983 19.0853 41.33 24.0422 36.9578L24.9827 36.1189C25.3386 36.2715 27.855 37.4662 28.2618 37.4662C28.4651 37.4662 28.516 37.6187 28.3889 37.9238C25.4656 45.1939 37.5148 51.3201 43.5393 45.6006C47.1489 42.1689 45.4204 33.3228 40.9973 32.7381C39.4467 32.5347 39.3195 33.1702 40.6413 34.5175C45.2169 39.2456 39.2686 48.9052 34.1084 45.1176C28.4905 41.025 32.6596 32.7127 38.074 32.6618C38.8112 32.6618 39.0399 32.2297 38.4806 31.9247C36.3454 30.7808 33.1932 31.6959 30.7529 34.187L29.2786 35.9156C29.0244 35.8139 26.7365 34.8988 26.0502 34.5938L26.635 33.1448C27.6518 30.6028 27.7025 28.5184 26.7366 26.2814C26.0248 24.5783 25.974 24.3495 26.3553 24.1207C26.9145 23.7903 29.3549 21.9601 29.7616 21.655L31.1088 22.5447C38.1756 27.222 47.0726 23.104 47.0472 15.1475C47.0218 11.0041 43.7426 8.81796 40.3109 7.80116C30.0158 4.80161 25.9994 12.4276 27.7534 18.0708ZM43.5646 14.4358C43.5646 21.9346 34.3881 25.2646 31.8461 18.6809C30.8293 16.0118 31.2867 6.63184 39.3194 9.07215C41.6072 9.75849 43.5646 11.6904 43.5646 14.4358ZM24.0422 24.8579C26.1266 27.9083 24.4489 34.1362 19.8988 36.4494C17.2551 37.7967 13.7216 36.0427 12.6794 32.8652C11.7643 30.1453 12.7303 26.7898 14.3826 24.6037C17.3567 20.6636 22.9745 23.3073 24.0422 24.8579Z" fill="#006B99"/>
</svg>
