<svg width="41" height="37" viewBox="0 0 41 37" fill="none" xmlns="http://www.w3.org/2000/svg">
<path fill-rule="evenodd" clip-rule="evenodd" d="M8.62386 1.13343C6.14179 1.54652 7.81251 3.22318 9.86489 3.51478C11.5833 3.75778 14.8767 3.75778 21.9648 3.73348C30.6041 3.70918 34.3033 3.80638 34.8522 4.04938C36.2125 4.68117 36.8093 7.11118 37.1911 13.6964C37.3343 16.0291 37.6206 19.5283 37.8354 21.4722C38.5037 27.7172 37.8833 28.3247 30.0314 28.6406C27.0004 28.7621 23.0626 29.0051 21.2965 29.1752C13.0391 29.9771 7.90788 29.8312 5.04404 28.6649C2.65744 27.6929 2.77682 26.9153 2.70522 25.2872C2.53816 22.1283 2.60974 15.6889 2.91996 9.83268C3.18249 4.92418 3.49275 3.95218 5.04404 3.22318C5.99859 2.78578 5.66456 2.27548 4.47126 2.32408C2.68133 2.42128 1.29714 3.02878 1.03462 5.87188C0.700499 9.37098 -1.42361 28.592 2.39489 30.2201C4.90075 31.2893 9.26824 32.3341 10.9865 32.3341C12.1798 32.3341 12.1322 33.6949 10.9389 34.0594C8.19437 34.8613 10.1274 36.8053 13.755 36.9511C21.1056 37.194 31.8452 36.5866 31.9407 35.8819C32.0362 35.1772 30.4849 33.5734 29.6734 33.5734C29.4109 33.5734 29.2437 33.2575 29.2437 32.7958C29.2437 32.1397 29.2438 31.2163 29.9836 31.2163C33.1578 31.2163 34.8522 31.0705 35.8068 30.8518C40.4606 29.8312 40.6516 26.6237 40.6039 24.7527C40.4368 17.0983 39.0287 9.78407 39.0287 8.05887C39.0049 5.06997 37.2866 2.12968 33.6112 1.59512C32.1794 1.15773 11.0821 0.720325 8.62386 1.13343ZM21.0818 16.0048C20.7954 15.6889 18.027 12.5543 17.2633 11.7524C16.3086 10.7561 15.3301 11.072 13.2776 12.9916C12.2275 13.9879 10.5809 15.4702 9.60237 16.3207C6.21348 19.2367 5.95086 20.5488 8.74319 20.5488C9.69783 20.5488 10.1513 20.2086 12.9913 17.2441C16.6666 13.4047 16.3325 13.429 19.5306 16.588C21.6784 18.702 21.4159 18.7264 24.9003 15.9562C27.9073 13.1132 29.6257 11.2178 31.7974 9.00648C33.9454 6.81958 30.6518 5.82328 28.9097 7.32978C26.8572 9.05508 21.1056 15.9805 21.0818 16.0048ZM28.8143 14.8627C28.3847 15.9805 28.5995 23.4405 29.0768 23.9022C30.2462 25.0929 30.9622 22.5414 30.8906 17.4871C30.8429 14.6926 29.5064 13.016 28.8143 14.8627ZM14.996 17.9002C14.2563 19.8928 14.8767 25.3359 16.3802 25.0686C17.8837 24.8013 16.8576 18.7992 16.5234 17.9245C16.3086 17.2927 15.2347 17.2684 14.996 17.9002ZM24.7093 18.459C24.3036 18.9693 23.8979 22.7358 24.1605 23.7564C24.6139 25.5788 26.4992 24.777 26.4992 22.7601C26.4992 19.3825 25.6401 17.317 24.7093 18.459ZM11.1298 21.0591C10.7718 21.4236 10.9149 24.1452 11.3445 24.7283C12.1082 25.7975 12.7765 25.1172 12.7765 23.2461C12.7526 21.3021 11.9411 20.2087 11.1298 21.0591ZM19.3634 21.0591C18.7429 21.6909 19.1725 24.2909 19.9362 24.6554C21.1533 25.2143 21.5591 23.6835 20.8192 21.2535C20.6999 20.8161 19.7214 20.6946 19.3634 21.0591ZM25.5208 31.6295C26.4755 31.8968 26.1175 32.7715 26.213 33.5734L15.1869 33.7678C15.1869 33.6949 15.378 31.7752 15.378 31.8967C16.1416 31.8724 23.1342 31.5809 24.0889 31.508C24.4707 31.4594 25.139 31.5323 25.5208 31.6295Z" fill="#006B99"/>
</svg>
